<svg width="55" height="57" viewBox="0 0 55 57" fill="none" xmlns="http://www.w3.org/2000/svg">
<g filter="url(#filter0_d)">
<path d="M10.9691 45.3491C11.3826 47.2574 9.65545 47.3637 8.66624 47.3832C6.95705 47.4179 5.95729 47.2141 6.05882 45.9867C6.14732 44.9176 7.46716 44.6682 8.56472 44.6682C9.66207 44.6682 10.8467 44.7831 10.9691 45.3491V45.3491Z" fill="black"/>
<path d="M10.9691 45.3491C11.3826 47.2574 9.65545 47.3637 8.66624 47.3832C6.95705 47.4179 5.95729 47.2141 6.05882 45.9867C6.14732 44.9176 7.46716 44.6682 8.56472 44.6682C9.66207 44.6682 10.8467 44.7831 10.9691 45.3491V45.3491Z" stroke="black" stroke-linecap="round" stroke-linejoin="round"/>
</g>
<g filter="url(#filter1_d)">
<path d="M50.3977 34.9075C50.3998 45.8739 40.0404 46.6763 27.5098 46.6763C14.9785 46.6763 5.32912 45.2363 5.33325 34.2677C5.3286 23.3013 14.9785 6.95902 27.5098 6.95902C40.0404 6.95816 50.3998 23.941 50.3977 34.9075Z" fill="#294F24"/>
<path d="M50.3977 34.9075C50.3998 45.8739 40.0404 46.6763 27.5098 46.6763C14.9785 46.6763 5.32912 45.2363 5.33325 34.2677C5.3286 23.3013 14.9785 6.95902 27.5098 6.95902C40.0404 6.95816 50.3998 23.941 50.3977 34.9075Z" stroke="black" stroke-width="0.8" stroke-linecap="round" stroke-linejoin="round"/>
</g>
<g filter="url(#filter2_d)">
<path d="M48.5118 27.2242C48.5118 40.3354 38.872 41.1833 26.3704 41.1833C16.5976 41.1833 8.25859 40.639 5.99875 28.8767C2.69056 46.4811 15.3603 46.635 27.5116 46.635C40.0132 46.635 50.6662 46.1059 50.6662 32.9948C50.6807 29.6812 50.1307 29.5706 48.5116 27.2242H48.5118Z" fill="black" fill-opacity="0.31373"/>
</g>
<g filter="url(#filter3_d)">
<path d="M9.97645 15.3457C8.59003 29.2801 22.434 33.6345 27.4067 34.4781C32.8614 35.4019 46.4858 29.8612 45.9544 16.4096C45.3217 0.446402 11.3631 1.41076 9.97563 15.3457H9.97645Z" fill="#128203"/>
<path d="M9.97645 15.3457C8.59003 29.2801 22.434 33.6345 27.4067 34.4781C32.8614 35.4019 46.4858 29.8612 45.9544 16.4096C45.3217 0.446402 11.3631 1.41076 9.97563 15.3457H9.97645Z" stroke="black" stroke-width="0.5" stroke-linecap="round" stroke-linejoin="round"/>
</g>
<g filter="url(#filter4_d)">
<path d="M40.7477 7.66966C40.7477 10.1802 37.4848 12.2176 35.903 12.2176C34.3811 12.2176 31.0603 10.1802 31.0603 7.66966C31.0603 5.15933 32.5181 3.12196 35.903 3.12196C39.2899 3.12196 40.7477 5.15933 40.7477 7.66966V7.66966Z" fill="black" fill-opacity="0.31373"/>
</g>
<path d="M39.8957 5.50803C39.8957 8.22286 37.799 10.4242 35.2102 10.4242C32.6214 10.4242 30.5226 8.22286 30.5247 5.50803C30.5226 2.79321 32.6214 0.592117 35.2102 0.592117C37.799 0.592117 39.8957 2.79321 39.8957 5.50803Z" fill="white" stroke="black" stroke-linecap="round" stroke-linejoin="round"/>
<path d="M35.1212 7.01411C35.1212 7.91905 34.4223 8.65268 33.56 8.65268C32.6957 8.65268 31.9968 7.91905 31.9968 7.01411C31.9968 6.10917 32.6957 5.37533 33.56 5.37533C34.4223 5.37533 35.1212 6.10917 35.1212 7.01411V7.01411Z" fill="black"/>
<g filter="url(#filter5_d)">
<path d="M25.3201 9.69226C25.3201 12.2026 22.0569 14.24 20.4757 14.24C18.9535 14.24 15.6318 12.2026 15.6318 9.69226C15.6318 7.18193 17.0894 5.14456 20.4757 5.14456C23.8627 5.14456 25.3201 7.18193 25.3201 9.69226Z" fill="black" fill-opacity="0.31373"/>
</g>
<g filter="url(#filter6_d)">
<path d="M27.9155 23.8695C23.6973 23.8695 19.8713 25.3571 19.4652 26.5932C19.27 29.0155 23.1919 25.5805 28.0168 25.639C32.8409 25.6997 35.8577 29.1087 36.0665 26.6994C36.0665 25.7843 32.1316 23.8695 27.9155 23.8695V23.8695Z" fill="#FFD5E5"/>
<path d="M27.9155 23.8695C23.6973 23.8695 19.8713 25.3571 19.4652 26.5932C19.27 29.0155 23.1919 25.5805 28.0168 25.639C32.8409 25.6997 35.8577 29.1087 36.0665 26.6994C36.0665 25.7843 32.1316 23.8695 27.9155 23.8695V23.8695Z" stroke="black" stroke-width="0.2" stroke-linecap="round" stroke-linejoin="round"/>
</g>
<g filter="url(#filter7_d)">
<path d="M24.7292 7.44131C24.73 10.1561 22.6317 12.445 20.0431 12.553C17.4545 12.661 15.3563 10.5476 15.3569 7.83252C15.3563 5.11791 17.4545 2.82899 20.0431 2.72099C22.6317 2.613 24.73 4.72648 24.7292 7.44131V7.44131Z" fill="white"/>
<path d="M24.7292 7.44131C24.73 10.1561 22.6317 12.445 20.0431 12.553C17.4545 12.661 15.3563 10.5476 15.3569 7.83252C15.3563 5.11791 17.4545 2.82899 20.0431 2.72099C22.6317 2.613 24.73 4.72648 24.7292 7.44131V7.44131Z" stroke="black" stroke-linecap="round" stroke-linejoin="round"/>
</g>
<g filter="url(#filter8_d)">
<path d="M45.5426 14.3215L45.1352 14.8168C45.189 15.3904 45.2096 15.9738 45.2096 16.5658C45.2096 24.9885 33.1919 31.8281 27.3671 31.8281C22.8534 31.8281 14.0481 27.3977 10.7854 21.2737C12.4458 28.7791 23.2492 34.5844 28.4154 34.5844C34.2403 34.5844 46.258 27.7469 46.258 19.322C46.258 17.5698 46.0243 15.8892 45.5426 14.3215V14.3215Z" fill="black" fill-opacity="0.31373"/>
</g>
<g filter="url(#filter9_d)">
<path d="M31.5501 18.3678C31.0766 19.2309 30.2061 19.6343 29.6064 19.2721C29.0088 18.91 28.9075 17.9168 29.381 17.0558C29.8566 16.1949 30.7251 15.7896 31.3247 16.1515C31.9244 16.5159 32.0236 17.5069 31.5501 18.3678Z" fill="black"/>
</g>
<g filter="url(#filter10_d)">
<path d="M25.5929 18.6888C26.0664 19.5497 26.9369 19.9552 27.5365 19.5909C28.1341 19.2288 28.2354 18.2355 27.7619 17.3746C27.2863 16.5137 26.4179 16.1082 25.8182 16.4725C25.2186 16.8347 25.1194 17.8257 25.5929 18.6888Z" fill="black"/>
</g>
<path d="M21.9647 8.29138C21.9649 9.19632 21.2654 9.93017 20.4026 9.93017C19.5397 9.93017 18.8404 9.19632 18.8406 8.29138C18.8404 7.38644 19.5397 6.65282 20.4026 6.65282C21.2654 6.65282 21.9649 7.38644 21.9647 8.29138V8.29138Z" fill="black"/>
<g filter="url(#filter11_d)">
<path d="M13.9122 45.2428C14.3255 47.1512 12.5986 47.2574 11.6094 47.277C9.90016 47.3095 8.90041 47.1078 9.00193 45.8804C9.09043 44.8113 10.4103 44.5619 11.5078 44.5619C12.6052 44.5619 13.7898 44.6768 13.9122 45.2428V45.2428Z" fill="black"/>
<path d="M13.9122 45.2428C14.3255 47.1512 12.5986 47.2574 11.6094 47.277C9.90016 47.3095 8.90041 47.1078 9.00193 45.8804C9.09043 44.8113 10.4103 44.5619 11.5078 44.5619C12.6052 44.5619 13.7898 44.6768 13.9122 45.2428V45.2428Z" stroke="black" stroke-linecap="round" stroke-linejoin="round"/>
</g>
<g filter="url(#filter12_d)">
<path d="M17.5062 45.1539C17.9195 47.0623 16.1926 47.1685 15.2031 47.188C13.4942 47.2206 12.4944 47.0189 12.5959 45.7915C12.6844 44.7224 14.0043 44.473 15.1018 44.473C16.1992 44.473 17.3836 44.5879 17.5062 45.1539V45.1539Z" fill="black"/>
<path d="M17.5062 45.1539C17.9195 47.0623 16.1926 47.1685 15.2031 47.188C13.4942 47.2206 12.4944 47.0189 12.5959 45.7915C12.6844 44.7224 14.0043 44.473 15.1018 44.473C16.1992 44.473 17.3836 44.5879 17.5062 45.1539V45.1539Z" stroke="black" stroke-linecap="round" stroke-linejoin="round"/>
</g>
<g filter="url(#filter13_d)">
<path d="M25.6119 45.3665C25.6119 47.3377 23.3858 47.5936 20.9754 47.6131C19.266 47.6283 16.5175 47.6304 16.8455 45.4727C17.2516 42.8032 18.8706 42.7425 20.8739 42.5582C23.1893 42.3456 24.6994 43.122 25.6119 45.3665Z" fill="black"/>
<path d="M25.6119 45.3665C25.6119 47.3377 23.3858 47.5936 20.9754 47.6131C19.266 47.6283 16.5175 47.6304 16.8455 45.4727C17.2516 42.8032 18.8706 42.7425 20.8739 42.5582C23.1893 42.3456 24.6994 43.122 25.6119 45.3665Z" stroke="black" stroke-linecap="round" stroke-linejoin="round"/>
</g>
<g filter="url(#filter14_d)">
<path d="M42.9996 45.2428C42.586 47.1512 44.3126 47.2574 45.3031 47.277C47.011 47.3095 48.0118 47.1078 47.9105 45.8804C47.8216 44.8113 46.5003 44.5619 45.4044 44.5619C44.3064 44.5619 43.1216 44.6768 42.9996 45.2428V45.2428Z" fill="black"/>
<path d="M42.9996 45.2428C42.586 47.1512 44.3126 47.2574 45.3031 47.277C47.011 47.3095 48.0118 47.1078 47.9105 45.8804C47.8216 44.8113 46.5003 44.5619 45.4044 44.5619C44.3064 44.5619 43.1216 44.6768 42.9996 45.2428V45.2428Z" stroke="black" stroke-linecap="round" stroke-linejoin="round"/>
</g>
<g filter="url(#filter15_d)">
<path d="M40.0552 45.1366C39.6416 47.0449 41.3703 47.1512 42.3587 47.1707C44.0687 47.2032 45.0674 47.0015 44.9661 45.7741C44.8772 44.705 43.558 44.4557 42.46 44.4557C41.362 44.4557 40.1793 44.5706 40.0552 45.1366V45.1366Z" fill="black"/>
<path d="M40.0552 45.1366C39.6416 47.0449 41.3703 47.1512 42.3587 47.1707C44.0687 47.2032 45.0674 47.0015 44.9661 45.7741C44.8772 44.705 43.558 44.4557 42.46 44.4557C41.362 44.4557 40.1793 44.5706 40.0552 45.1366V45.1366Z" stroke="black" stroke-linecap="round" stroke-linejoin="round"/>
</g>
<g filter="url(#filter16_d)">
<path d="M36.4614 45.0455C36.0479 46.956 37.7765 47.0623 38.7649 47.0818C40.4749 47.1143 41.4737 46.9126 41.3723 45.6852C41.2834 44.6161 39.9642 44.3667 38.8662 44.3667C37.7703 44.3667 36.5855 44.4817 36.4614 45.0455Z" fill="black"/>
<path d="M36.4614 45.0455C36.0479 46.956 37.7765 47.0623 38.7649 47.0818C40.4749 47.1143 41.4737 46.9126 41.3723 45.6852C41.2834 44.6161 39.9642 44.3667 38.8662 44.3667C37.7703 44.3667 36.5855 44.4817 36.4614 45.0455Z" stroke="black" stroke-linecap="round" stroke-linejoin="round"/>
</g>
<g filter="url(#filter17_d)">
<path d="M29.5051 45.3665C29.5051 47.3377 31.7321 47.5936 34.1431 47.6131C35.8531 47.6283 38.6011 47.6304 38.2724 45.4727C37.8671 42.8032 36.248 42.7425 34.2444 42.5582C31.9285 42.3456 30.4191 43.122 29.5051 45.3665V45.3665Z" fill="black"/>
<path d="M29.5051 45.3665C29.5051 47.3377 31.7321 47.5936 34.1431 47.6131C35.8531 47.6283 38.6011 47.6304 38.2724 45.4727C37.8671 42.8032 36.248 42.7425 34.2444 42.5582C31.9285 42.3456 30.4191 43.122 29.5051 45.3665V45.3665Z" stroke="black" stroke-linecap="round" stroke-linejoin="round"/>
</g>
<path d="M16.0694 5.667C15.3291 9.03803 17.0357 4.57469 20.1025 4.57426C23.2126 4.57404 24.9975 8.65333 24.5416 6.51859C23.455 1.42442 16.832 2.19469 16.0694 5.667V5.667Z" fill="#3DE826" stroke="black" stroke-linecap="round" stroke-linejoin="round"/>
<path d="M39.3809 3.32516C40.1212 6.69619 38.5166 2.4458 35.3467 2.23242C32.6483 2.05091 30.4524 6.31148 30.9094 4.17675C31.9949 -0.917421 38.6179 -0.147148 39.3809 3.32516Z" fill="#3DE826" stroke="black" stroke-linecap="round" stroke-linejoin="round"/>
<defs>
<filter id="filter0_d" x="1.55176" y="44.1682" width="13.9801" height="11.7187" filterUnits="userSpaceOnUse" color-interpolation-filters="sRGB">
<feFlood flood-opacity="0" result="BackgroundImageFix"/>
<feColorMatrix in="SourceAlpha" type="matrix" values="0 0 0 0 0 0 0 0 0 0 0 0 0 0 0 0 0 0 127 0"/>
<feOffset dy="4"/>
<feGaussianBlur stdDeviation="2"/>
<feColorMatrix type="matrix" values="0 0 0 0 0 0 0 0 0 0 0 0 0 0 0 0 0 0 0.25 0"/>
<feBlend mode="normal" in2="BackgroundImageFix" result="effect1_dropShadow"/>
<feBlend mode="normal" in="SourceGraphic" in2="effect1_dropShadow" result="shape"/>
</filter>
<filter id="filter1_d" x="0.93335" y="6.55902" width="53.8645" height="48.5172" filterUnits="userSpaceOnUse" color-interpolation-filters="sRGB">
<feFlood flood-opacity="0" result="BackgroundImageFix"/>
<feColorMatrix in="SourceAlpha" type="matrix" values="0 0 0 0 0 0 0 0 0 0 0 0 0 0 0 0 0 0 127 0"/>
<feOffset dy="4"/>
<feGaussianBlur stdDeviation="2"/>
<feColorMatrix type="matrix" values="0 0 0 0 0 0 0 0 0 0 0 0 0 0 0 0 0 0 0.25 0"/>
<feBlend mode="normal" in2="BackgroundImageFix" result="effect1_dropShadow"/>
<feBlend mode="normal" in="SourceGraphic" in2="effect1_dropShadow" result="shape"/>
</filter>
<filter id="filter2_d" x="1.46509" y="27.2242" width="53.2014" height="27.4108" filterUnits="userSpaceOnUse" color-interpolation-filters="sRGB">
<feFlood flood-opacity="0" result="BackgroundImageFix"/>
<feColorMatrix in="SourceAlpha" type="matrix" values="0 0 0 0 0 0 0 0 0 0 0 0 0 0 0 0 0 0 127 0"/>
<feOffset dy="4"/>
<feGaussianBlur stdDeviation="2"/>
<feColorMatrix type="matrix" values="0 0 0 0 0 0 0 0 0 0 0 0 0 0 0 0 0 0 0.25 0"/>
<feBlend mode="normal" in2="BackgroundImageFix" result="effect1_dropShadow"/>
<feBlend mode="normal" in="SourceGraphic" in2="effect1_dropShadow" result="shape"/>
</filter>
<filter id="filter3_d" x="5.62939" y="4.41582" width="44.5902" height="38.4108" filterUnits="userSpaceOnUse" color-interpolation-filters="sRGB">
<feFlood flood-opacity="0" result="BackgroundImageFix"/>
<feColorMatrix in="SourceAlpha" type="matrix" values="0 0 0 0 0 0 0 0 0 0 0 0 0 0 0 0 0 0 127 0"/>
<feOffset dy="4"/>
<feGaussianBlur stdDeviation="2"/>
<feColorMatrix type="matrix" values="0 0 0 0 0 0 0 0 0 0 0 0 0 0 0 0 0 0 0.25 0"/>
<feBlend mode="normal" in2="BackgroundImageFix" result="effect1_dropShadow"/>
<feBlend mode="normal" in="SourceGraphic" in2="effect1_dropShadow" result="shape"/>
</filter>
<filter id="filter4_d" x="27.0603" y="3.12196" width="17.6874" height="17.0956" filterUnits="userSpaceOnUse" color-interpolation-filters="sRGB">
<feFlood flood-opacity="0" result="BackgroundImageFix"/>
<feColorMatrix in="SourceAlpha" type="matrix" values="0 0 0 0 0 0 0 0 0 0 0 0 0 0 0 0 0 0 127 0"/>
<feOffset dy="4"/>
<feGaussianBlur stdDeviation="2"/>
<feColorMatrix type="matrix" values="0 0 0 0 0 0 0 0 0 0 0 0 0 0 0 0 0 0 0.25 0"/>
<feBlend mode="normal" in2="BackgroundImageFix" result="effect1_dropShadow"/>
<feBlend mode="normal" in="SourceGraphic" in2="effect1_dropShadow" result="shape"/>
</filter>
<filter id="filter5_d" x="11.6318" y="5.14456" width="17.6882" height="17.0954" filterUnits="userSpaceOnUse" color-interpolation-filters="sRGB">
<feFlood flood-opacity="0" result="BackgroundImageFix"/>
<feColorMatrix in="SourceAlpha" type="matrix" values="0 0 0 0 0 0 0 0 0 0 0 0 0 0 0 0 0 0 127 0"/>
<feOffset dy="4"/>
<feGaussianBlur stdDeviation="2"/>
<feColorMatrix type="matrix" values="0 0 0 0 0 0 0 0 0 0 0 0 0 0 0 0 0 0 0.25 0"/>
<feBlend mode="normal" in2="BackgroundImageFix" result="effect1_dropShadow"/>
<feBlend mode="normal" in="SourceGraphic" in2="effect1_dropShadow" result="shape"/>
</filter>
<filter id="filter6_d" x="15.3582" y="23.7695" width="24.8083" height="11.8904" filterUnits="userSpaceOnUse" color-interpolation-filters="sRGB">
<feFlood flood-opacity="0" result="BackgroundImageFix"/>
<feColorMatrix in="SourceAlpha" type="matrix" values="0 0 0 0 0 0 0 0 0 0 0 0 0 0 0 0 0 0 127 0"/>
<feOffset dy="4"/>
<feGaussianBlur stdDeviation="2"/>
<feColorMatrix type="matrix" values="0 0 0 0 0 0 0 0 0 0 0 0 0 0 0 0 0 0 0.25 0"/>
<feBlend mode="normal" in2="BackgroundImageFix" result="effect1_dropShadow"/>
<feBlend mode="normal" in="SourceGraphic" in2="effect1_dropShadow" result="shape"/>
</filter>
<filter id="filter7_d" x="10.8569" y="2.217" width="18.3723" height="18.84" filterUnits="userSpaceOnUse" color-interpolation-filters="sRGB">
<feFlood flood-opacity="0" result="BackgroundImageFix"/>
<feColorMatrix in="SourceAlpha" type="matrix" values="0 0 0 0 0 0 0 0 0 0 0 0 0 0 0 0 0 0 127 0"/>
<feOffset dy="4"/>
<feGaussianBlur stdDeviation="2"/>
<feColorMatrix type="matrix" values="0 0 0 0 0 0 0 0 0 0 0 0 0 0 0 0 0 0 0.25 0"/>
<feBlend mode="normal" in2="BackgroundImageFix" result="effect1_dropShadow"/>
<feBlend mode="normal" in="SourceGraphic" in2="effect1_dropShadow" result="shape"/>
</filter>
<filter id="filter8_d" x="6.7854" y="14.3215" width="43.4726" height="28.2628" filterUnits="userSpaceOnUse" color-interpolation-filters="sRGB">
<feFlood flood-opacity="0" result="BackgroundImageFix"/>
<feColorMatrix in="SourceAlpha" type="matrix" values="0 0 0 0 0 0 0 0 0 0 0 0 0 0 0 0 0 0 127 0"/>
<feOffset dy="4"/>
<feGaussianBlur stdDeviation="2"/>
<feColorMatrix type="matrix" values="0 0 0 0 0 0 0 0 0 0 0 0 0 0 0 0 0 0 0.25 0"/>
<feBlend mode="normal" in2="BackgroundImageFix" result="effect1_dropShadow"/>
<feBlend mode="normal" in="SourceGraphic" in2="effect1_dropShadow" result="shape"/>
</filter>
<filter id="filter9_d" x="25.0828" y="16.0191" width="10.7663" height="11.3859" filterUnits="userSpaceOnUse" color-interpolation-filters="sRGB">
<feFlood flood-opacity="0" result="BackgroundImageFix"/>
<feColorMatrix in="SourceAlpha" type="matrix" values="0 0 0 0 0 0 0 0 0 0 0 0 0 0 0 0 0 0 127 0"/>
<feOffset dy="4"/>
<feGaussianBlur stdDeviation="2"/>
<feColorMatrix type="matrix" values="0 0 0 0 0 0 0 0 0 0 0 0 0 0 0 0 0 0 0.25 0"/>
<feBlend mode="normal" in2="BackgroundImageFix" result="effect1_dropShadow"/>
<feBlend mode="normal" in="SourceGraphic" in2="effect1_dropShadow" result="shape"/>
</filter>
<filter id="filter10_d" x="21.2939" y="16.3387" width="10.7663" height="11.386" filterUnits="userSpaceOnUse" color-interpolation-filters="sRGB">
<feFlood flood-opacity="0" result="BackgroundImageFix"/>
<feColorMatrix in="SourceAlpha" type="matrix" values="0 0 0 0 0 0 0 0 0 0 0 0 0 0 0 0 0 0 127 0"/>
<feOffset dy="4"/>
<feGaussianBlur stdDeviation="2"/>
<feColorMatrix type="matrix" values="0 0 0 0 0 0 0 0 0 0 0 0 0 0 0 0 0 0 0.25 0"/>
<feBlend mode="normal" in2="BackgroundImageFix" result="effect1_dropShadow"/>
<feBlend mode="normal" in="SourceGraphic" in2="effect1_dropShadow" result="shape"/>
</filter>
<filter id="filter11_d" x="4.49487" y="44.0619" width="13.98" height="11.7183" filterUnits="userSpaceOnUse" color-interpolation-filters="sRGB">
<feFlood flood-opacity="0" result="BackgroundImageFix"/>
<feColorMatrix in="SourceAlpha" type="matrix" values="0 0 0 0 0 0 0 0 0 0 0 0 0 0 0 0 0 0 127 0"/>
<feOffset dy="4"/>
<feGaussianBlur stdDeviation="2"/>
<feColorMatrix type="matrix" values="0 0 0 0 0 0 0 0 0 0 0 0 0 0 0 0 0 0 0.25 0"/>
<feBlend mode="normal" in2="BackgroundImageFix" result="effect1_dropShadow"/>
<feBlend mode="normal" in="SourceGraphic" in2="effect1_dropShadow" result="shape"/>
</filter>
<filter id="filter12_d" x="8.08887" y="43.973" width="13.98" height="11.7183" filterUnits="userSpaceOnUse" color-interpolation-filters="sRGB">
<feFlood flood-opacity="0" result="BackgroundImageFix"/>
<feColorMatrix in="SourceAlpha" type="matrix" values="0 0 0 0 0 0 0 0 0 0 0 0 0 0 0 0 0 0 127 0"/>
<feOffset dy="4"/>
<feGaussianBlur stdDeviation="2"/>
<feColorMatrix type="matrix" values="0 0 0 0 0 0 0 0 0 0 0 0 0 0 0 0 0 0 0.25 0"/>
<feBlend mode="normal" in2="BackgroundImageFix" result="effect1_dropShadow"/>
<feBlend mode="normal" in="SourceGraphic" in2="effect1_dropShadow" result="shape"/>
</filter>
<filter id="filter13_d" x="12.3186" y="42.0245" width="17.7932" height="14.091" filterUnits="userSpaceOnUse" color-interpolation-filters="sRGB">
<feFlood flood-opacity="0" result="BackgroundImageFix"/>
<feColorMatrix in="SourceAlpha" type="matrix" values="0 0 0 0 0 0 0 0 0 0 0 0 0 0 0 0 0 0 127 0"/>
<feOffset dy="4"/>
<feGaussianBlur stdDeviation="2"/>
<feColorMatrix type="matrix" values="0 0 0 0 0 0 0 0 0 0 0 0 0 0 0 0 0 0 0.25 0"/>
<feBlend mode="normal" in2="BackgroundImageFix" result="effect1_dropShadow"/>
<feBlend mode="normal" in="SourceGraphic" in2="effect1_dropShadow" result="shape"/>
</filter>
<filter id="filter14_d" x="38.4368" y="44.0619" width="13.9807" height="11.7183" filterUnits="userSpaceOnUse" color-interpolation-filters="sRGB">
<feFlood flood-opacity="0" result="BackgroundImageFix"/>
<feColorMatrix in="SourceAlpha" type="matrix" values="0 0 0 0 0 0 0 0 0 0 0 0 0 0 0 0 0 0 127 0"/>
<feOffset dy="4"/>
<feGaussianBlur stdDeviation="2"/>
<feColorMatrix type="matrix" values="0 0 0 0 0 0 0 0 0 0 0 0 0 0 0 0 0 0 0.25 0"/>
<feBlend mode="normal" in2="BackgroundImageFix" result="effect1_dropShadow"/>
<feBlend mode="normal" in="SourceGraphic" in2="effect1_dropShadow" result="shape"/>
</filter>
<filter id="filter15_d" x="35.4924" y="43.9557" width="13.9806" height="11.7183" filterUnits="userSpaceOnUse" color-interpolation-filters="sRGB">
<feFlood flood-opacity="0" result="BackgroundImageFix"/>
<feColorMatrix in="SourceAlpha" type="matrix" values="0 0 0 0 0 0 0 0 0 0 0 0 0 0 0 0 0 0 127 0"/>
<feOffset dy="4"/>
<feGaussianBlur stdDeviation="2"/>
<feColorMatrix type="matrix" values="0 0 0 0 0 0 0 0 0 0 0 0 0 0 0 0 0 0 0.25 0"/>
<feBlend mode="normal" in2="BackgroundImageFix" result="effect1_dropShadow"/>
<feBlend mode="normal" in="SourceGraphic" in2="effect1_dropShadow" result="shape"/>
</filter>
<filter id="filter16_d" x="31.8987" y="43.8667" width="13.9806" height="11.7183" filterUnits="userSpaceOnUse" color-interpolation-filters="sRGB">
<feFlood flood-opacity="0" result="BackgroundImageFix"/>
<feColorMatrix in="SourceAlpha" type="matrix" values="0 0 0 0 0 0 0 0 0 0 0 0 0 0 0 0 0 0 127 0"/>
<feOffset dy="4"/>
<feGaussianBlur stdDeviation="2"/>
<feColorMatrix type="matrix" values="0 0 0 0 0 0 0 0 0 0 0 0 0 0 0 0 0 0 0.25 0"/>
<feBlend mode="normal" in2="BackgroundImageFix" result="effect1_dropShadow"/>
<feBlend mode="normal" in="SourceGraphic" in2="effect1_dropShadow" result="shape"/>
</filter>
<filter id="filter17_d" x="25.0051" y="42.0245" width="17.7941" height="14.091" filterUnits="userSpaceOnUse" color-interpolation-filters="sRGB">
<feFlood flood-opacity="0" result="BackgroundImageFix"/>
<feColorMatrix in="SourceAlpha" type="matrix" values="0 0 0 0 0 0 0 0 0 0 0 0 0 0 0 0 0 0 127 0"/>
<feOffset dy="4"/>
<feGaussianBlur stdDeviation="2"/>
<feColorMatrix type="matrix" values="0 0 0 0 0 0 0 0 0 0 0 0 0 0 0 0 0 0 0.25 0"/>
<feBlend mode="normal" in2="BackgroundImageFix" result="effect1_dropShadow"/>
<feBlend mode="normal" in="SourceGraphic" in2="effect1_dropShadow" result="shape"/>
</filter>
</defs>
</svg>
